# xmcd CD database file
#
# Track frame offsets:
#	150
#	9953
#	22217
#	40993
#	55127
#	64430
#	78790
#	91110
#	105456
#	115225
#	130251
#	140116
#	152759
#	165488
#	175955
#
# Disc length: 2499 seconds
#
# Revision: 4
# Processed by: cddbd v1.4PL0 Copyright (c) Steve Scherf et al.
# Submitted via: CDex 1.40Release
#
DISCID=c109c10f
DTITLE=The Oak Ridge Boys - Collection (Gospel Favorites) V.2
DYEAR=1998
DGENRE=Gospel
TTITLE0=Try A Little Kindness
TTITLE1=After All
TTITLE2=Put Your Hand In The Hand
TTITLE3=He Did It All For Me
TTITLE4=I Enjoy The Difference
TTITLE5=Redemption Draweth Nigh
TTITLE6=My God Is Real
TTITLE7=Jesus Christ, What A Man
TTITLE8=When The Great Trumpet Sounds
TTITLE9=Mama's Teaching Angels How To Sing
TTITLE10=Glory, Glory, Clear The Road
TTITLE11=He Looked Beyond My Fault
TTITLE12=Talk About The Good Times
TTITLE13=Remind Me, Dear Lord
TTITLE14=Daddy Sang Bass
EXTD=YEAR: 1998 ID3G: 38
EXTT0=
EXTT1=
EXTT2=
EXTT3=
EXTT4=
EXTT5=
EXTT6=
EXTT7=
EXTT8=
EXTT9=
EXTT10=
EXTT11=
EXTT12=
EXTT13=
EXTT14=
PLAYORDER=
